<?xml version="1.0" encoding="utf-8"?>
<!-- Generator: Adobe Illustrator 28.4.1, SVG Export Plug-In . SVG Version: 6.00 Build 0)  -->
<svg version="1.1" id="Layer_1" xmlns="http://www.w3.org/2000/svg" xmlns:xlink="http://www.w3.org/1999/xlink" x="0px" y="0px"
	 viewBox="0 0 407 221.4" style="enable-background:new 0 0 407 221.4;" xml:space="preserve">
<style type="text/css">
	.st0{fill:#221F42;}
	.st1{fill:#EDB44B;}
	.st2{fill:#74AE3E;}
</style>
<g>
	<path class="st0" d="M370.4,77.5c0,6.9-3,10.4-9.3,10.4l0,0l0,0c-4.1,0-7.8-0.2-10.6-0.7c4.1-4.1,6.1-8.8,6.1-14.3
		c0-3.5-0.9-6.7-2.4-9.4c-1.5-2.8-3.9-5.1-6.7-6.9s-6.1-2.5-9.8-2.5s-6.7,0.9-9.8,2.5c-2.8,1.6-5.2,3.9-6.7,6.9
		c-1.7,3-2.4,6.2-2.4,9.7c0,2.8,0.4,5.5,1.5,7.8c1.1,2.3,2.6,4.6,4.6,6.5c-2.8,0.2-6.5,0.5-10.9,0.5l0,0h-65
		c-3.9,0-7.6-1.4-11.1-3.9c0.2-1.2,0.2-2.3,0.2-3.5V63l-9.1,1.4v13.1c0,3.7-0.9,6.5-2.8,8.1c-2,1.6-5,2.5-8.9,2.5l0,0l0,0
		c-2.4,0-4.6-0.7-6.1-1.8c-1.7-1.2-2.6-3.2-3-6V53.8l-9.1,1.4v40.5c0,4.6-1.3,8.1-3.7,10.4c-2.4,2.3-5.9,3.2-10.4,3.2l0.7,8.1
		c7.4,0,13-1.6,16.7-5.1c3.7-3.5,5.4-8.8,5.4-16.4v-1.8c2.2,2.8,5.2,4.1,9.1,4.1l0,0l0,0c8.7,0,14.6-2.1,17.8-6.5
		c2,2.1,4.3,3.7,6.7,4.8s4.8,1.6,7.2,1.6h65l0,0c9.6,0,17.6-1.2,24.1-3.7c7.4,2.3,15,3.7,23,3.7l0,0c6.1,0,10.6-1.6,13.9-4.6
		c3-3,4.6-7.4,4.6-13.1V53.8l-9.1,1.4L370.4,77.5L370.4,77.5z M344.7,81.4c-2,2.3-4.3,3.9-7.4,5.1c-3-0.9-5.4-2.8-7.2-4.8
		c-1.7-2.3-2.8-4.6-2.8-7.4c0-3.2,0.9-5.8,2.8-7.6c2-1.8,4.1-3,7.2-3c3,0,5.4,0.9,7.4,3c2,2.1,3,4.6,3,7.6
		C347.5,76.8,346.7,79.1,344.7,81.4"/>
	<path class="st0" d="M370.6,43.9c2.4,2.3,6.1,2.3,8.3,0l0,0c2.4-2.5,2.4-6.5,0-9h-0.2c-2.4-2.3-5.9-2.3-8.3,0
		C368,37.2,368,41.3,370.6,43.9L370.6,43.9z"/>
	<path class="st0" d="M333,43.9c2.4,2.3,6.1,2.3,8.3,0l0,0c2.4-2.5,2.4-6.5,0-9H341c-2.4-2.3-5.9-2.3-8.3,0
		C330.4,37.2,330.4,41.3,333,43.9L333,43.9z"/>
	<path class="st0" d="M227.6,107.2c-2.4-2.3-5.9-2.3-8.3,0c-2.4,2.5-2.4,6.5,0,9l0,0c2.4,2.3,6.1,2.3,8.3,0
		C230.2,113.7,230.2,109.8,227.6,107.2L227.6,107.2z"/>
	<path class="st0" d="M243.5,107.2c-2.4-2.3-5.9-2.3-8.3,0c-2.4,2.5-2.4,6.5,0,9l0,0c2.4,2.3,6.1,2.3,8.3,0
		C245.9,113.7,245.9,109.8,243.5,107.2L243.5,107.2z"/>
	<path class="st0" d="M343.6,124.7c-2.4-2.3-5.9-2.3-8.3,0c-2.4,2.5-2.4,6.5,0,9l0,0c2.4,2.3,6.1,2.3,8.3,0
		C346,131.2,346,127.3,343.6,124.7L343.6,124.7z"/>
	<polygon class="st0" points="227.8,171.5 196.5,127.5 186.8,127.5 186.8,187.9 195.9,187.9 195.9,143.4 227.2,187.9 236.9,187.9 
		236.9,126.8 227.8,128 	"/>
	<path class="st0" d="M288.2,180c-0.4-0.7-0.7-1.8-0.7-3.2v-17.7c0-5.1-1.5-9.2-4.8-12c-3.3-2.8-7.8-4.4-14.1-4.4
		c-3.5,0-6.7,0.5-10,1.2c-3.3,0.7-5.9,1.6-8,2.8l1.7,7.6c5-2.5,10-3.7,15-3.7c3.7,0,6.3,0.7,8,2.3c1.7,1.6,2.6,3.5,2.6,5.8v2.8
		c-3-0.5-6.1-0.7-9.3-0.7c-6.1,0-10.9,1.4-14.6,3.9c-3.7,2.5-5.4,6.2-5.4,11.3c0,3.7,1.3,6.9,3.9,9.2c2.6,2.5,6.1,3.7,10.4,3.7
		c6.5,0,11.5-2.5,15.4-7.4c0.4,2.3,1.5,4.1,3,5.3c1.5,1.2,3.7,1.8,6.7,1.8c0.9,0,1.7,0,3-0.2s2.2-0.5,3-0.7v-7.4
		c-0.7,0.5-1.7,0.5-2.8,0.5C289.7,180.9,288.7,180.7,288.2,180 M278,175.4c-1.7,1.8-3.5,3.5-5.2,4.1c-1.7,0.9-3.9,1.4-6.3,1.4
		c-2.4,0-4.3-0.5-5.6-1.6c-1.5-1.2-2.2-2.8-2.2-4.8s0.9-3.7,2.6-4.8c1.7-1.2,4.6-1.6,8.3-1.6c3.3,0,6.3,0.2,8.7,0.7L278,175.4
		L278,175.4z"/>
	<path class="st0" d="M319.3,122.9c-5,0-8.9,1.4-11.5,3.9c-2.6,2.5-3.9,6.5-3.9,11.1v5.3h-6.7v7.8h6.7v36.6h9.6v-36.4h13.9v-7.8
		h-13.9v-5.1c0-5.1,2.4-7.6,7.4-7.6c2.6,0,5,0.5,7.2,1.4l1.7-7.4c-1.3-0.5-2.8-0.9-4.8-1.4C323,122.9,321.3,122.9,319.3,122.9"/>
	<rect x="334.7" y="143.4" class="st0" width="9.6" height="44.5"/>
	<path class="st0" d="M381.9,142.5c-3.3,0-6.3,0.9-8.9,3c-2.8,2.1-4.8,4.6-6.3,8.1l-0.9-10.1h-8.9v44.5h9.6v-28.1
		c1.5-2.1,3.7-3.7,6.7-5.1c3-1.4,6.1-1.8,9.6-1.8L381.9,142.5L381.9,142.5z"/>
	<path class="st1" d="M140.5,85.3l-24.8,26.3c-7,7.4-18.3,7.4-25.2,0c-7-7.4-7-19.4,0-26.7l25-26.5c7-7.4,18.3-7.4,25.2,0
		C147.4,66,147.4,78,140.5,85.3"/>
	<path class="st2" d="M69.2,154.7L58.3,166c-5.2,5.5-13.9,5.5-19.1,0c-5.2-5.5-5.2-14.7,0-20.3l10.6-11.3c5.2-5.5,13.9-5.5,19.1,0
		C74.2,139.9,74.4,148.9,69.2,154.7"/>
	<path class="st1" d="M31.2,98.2L46,113.9c7,7.4,18.3,7.4,25.2,0l0,0c7-7.4,7-19.4,0-26.7l-15-15.7c-7-7.4-18.3-7.4-25.2,0
		C24.2,78.9,24.2,90.9,31.2,98.2"/>
	<path class="st2" d="M86.4,157l23.5,24.9c7,7.4,18.3,7.4,25.2,0c7-7.4,7-19.4,0-26.7l-23.5-24.9c-7-7.4-18.3-7.4-25.2,0
		C79.4,137.6,79.4,149.6,86.4,157"/>
	<path class="st1" d="M99.4,52.6c0,11.3-8.7,20.5-19.3,20.5s-19.3-9.2-19.3-20.5s8.7-20.5,19.3-20.5S99.4,41.3,99.4,52.6"/>
</g>
</svg>
